<svg width="54" height="48" viewBox="0 0 54 48" fill="none" xmlns="http://www.w3.org/2000/svg">
<g opacity="0.54">
<path d="M0 0H24C37.2548 0 48 10.7452 48 24C48 37.2548 37.2548 48 24 48H0V0Z" fill="#C4C4C4"/>
<g clip-path="url(#clip0)">
<path d="M30.5868 31.237C31.7097 32.3599 31.6903 34.1991 30.49 35.283C29.3672 36.3092 27.6248 36.2124 26.5601 35.1281L17.403 25.9711C16.8609 25.429 16.5899 24.7127 16.5899 23.9964C16.5899 23.2801 16.8609 22.564 17.403 22.0217L26.5407 12.8647C27.6055 11.7999 29.3672 11.6837 30.4707 12.7098C31.6516 13.7939 31.6903 15.6331 30.5675 16.7559L24.7209 22.641C23.9659 23.3961 23.9659 24.6157 24.7209 25.3709L30.5868 31.237Z" fill="#000A2B" fill-opacity="0.36"/>
</g>
</g>
<defs>
<clipPath id="clip0">
<rect width="24" height="24" fill="white" transform="matrix(-1 0 0 1 36 12)"/>
</clipPath>
</defs>
</svg>
