<svg width="54" height="48" viewBox="0 0 54 48" fill="none" xmlns="http://www.w3.org/2000/svg">
<g opacity="0.54">
<path d="M54 0H30C16.7452 0 6 10.7452 6 24C6 37.2548 16.7452 48 30 48H54V0Z" fill="#C4C4C4"/>
<g clip-path="url(#clip0)">
<path d="M23.4132 31.237C22.2903 32.3599 22.3097 34.1991 23.51 35.283C24.6328 36.3092 26.3752 36.2124 27.4399 35.1281L36.597 25.9711C37.1391 25.429 37.4101 24.7127 37.4101 23.9964C37.4101 23.2801 37.1391 22.564 36.597 22.0217L27.4593 12.8647C26.3945 11.7999 24.6328 11.6837 23.5293 12.7098C22.3484 13.7939 22.3097 15.6331 23.4325 16.7559L29.2791 22.641C30.0341 23.3961 30.0341 24.6157 29.2791 25.3709L23.4132 31.237Z" fill="#000A2B" fill-opacity="0.36"/>
</g>
</g>
<defs>
<clipPath id="clip0">
<rect width="24" height="24" fill="white" transform="translate(18 12)"/>
</clipPath>
</defs>
</svg>
