<svg width="11" height="10" viewBox="0 0 11 10" fill="none" xmlns="http://www.w3.org/2000/svg">
<path d="M3.49998 8C2.94998 8 2.50498 8.45 2.50498 9C2.50498 9.55 2.94998 10 3.49998 10C4.04998 10 4.49998 9.55 4.49998 9C4.49998 8.45 4.04998 8 3.49998 8ZM0.499985 0V1H1.49998L3.29998 4.795L2.62498 6.02C2.54498 6.16 2.49998 6.325 2.49998 6.5C2.49998 7.05 2.94998 7.5 3.49998 7.5H9.49998V6.5H3.70998C3.63998 6.5 3.58498 6.445 3.58498 6.375L3.59998 6.315L4.04998 5.5H7.77498C8.14998 5.5 8.47998 5.295 8.64998 4.985L10.44 1.74C10.48 1.67 10.5 1.585 10.5 1.5C10.5 1.225 10.275 1 9.99998 1H2.60498L2.13498 0H0.499985ZM8.49998 8C7.94998 8 7.50498 8.45 7.50498 9C7.50498 9.55 7.94998 10 8.49998 10C9.04998 10 9.49998 9.55 9.49998 9C9.49998 8.45 9.04998 8 8.49998 8Z" fill="white" fill-opacity="0.72"/>
</svg>
