<svg width="14" height="14" viewBox="0 0 14 14" fill="none" xmlns="http://www.w3.org/2000/svg">
<path d="M13 9.625C12.0625 9.625 11.1625 9.475 10.3225 9.1975C10.06 9.115 9.7675 9.175 9.5575 9.3775L7.9075 11.0275C5.785 9.9475 4.045 8.215 2.965 6.0925L4.615 4.435C4.825 4.2325 4.885 3.94 4.8025 3.6775C4.525 2.8375 4.375 1.9375 4.375 1C4.375 0.5875 4.0375 0.25 3.625 0.25H1C0.5875 0.25 0.25 0.5875 0.25 1C0.25 8.0425 5.9575 13.75 13 13.75C13.4125 13.75 13.75 13.4125 13.75 13V10.375C13.75 9.9625 13.4125 9.625 13 9.625ZM7 0.25V7.75L9.25 5.5H13.75V0.25H7Z" fill="white" fill-opacity="0.54"/>
</svg>
