<svg width="90" height="89" viewBox="0 0 90 89" fill="none" xmlns="http://www.w3.org/2000/svg">
<path d="M65.8594 36.5039C70.1727 36.5039 73.6816 40.0128 73.6816 44.3262V65.5332C73.6816 69.8466 70.1727 73.3555 65.8594 73.3555C61.546 73.3555 58.0371 69.8466 58.0371 65.5332V44.3262C58.0371 40.0128 61.546 36.5039 65.8594 36.5039Z" fill="black" fill-opacity="0.36"/>
<path d="M78.8965 44.3265C78.8965 43.5744 78.7972 42.8478 78.6743 42.1304C81.8168 43.146 84.1113 46.065 84.1113 49.5414V60.3187C84.1113 63.7951 81.8168 66.714 78.6743 67.7297C78.7972 67.0123 78.8965 66.2857 78.8965 65.5336V44.3265Z" fill="black" fill-opacity="0.36"/>
<path d="M24.1406 36.5039C28.454 36.5039 31.9629 40.0128 31.9629 44.3262V65.5332C31.9629 69.8466 28.454 73.3555 24.1406 73.3555C23.3567 73.3555 22.6141 73.2046 21.8996 72.989C22.8703 76.2064 25.8259 78.5703 29.3555 78.5703H37.658C38.738 75.5419 41.6051 73.3555 45 73.3555C49.3134 73.3555 52.8223 76.8644 52.8223 81.1777C52.8223 85.4911 49.3134 89 45 89C41.6051 89 38.738 86.8136 37.658 83.7852H29.3555C22.1672 83.7852 16.3184 77.9364 16.3184 70.748V65.5332V44.3262C16.3184 40.0128 19.8273 36.5039 24.1406 36.5039Z" fill="black" fill-opacity="0.36"/>
<path d="M11.3257 42.1304C11.2028 42.8478 11.1035 43.5744 11.1035 44.3265V65.5336C11.1035 66.2857 11.2028 67.0123 11.3257 67.7297C8.18322 66.714 5.88869 63.7951 5.88869 60.3187V49.5414C5.88869 46.065 8.18322 43.146 11.3257 42.1304Z" fill="black" fill-opacity="0.36"/>
<path d="M45 0C66.5672 0 84.1113 17.5441 84.1113 39.1113V39.1779C82.5578 38.0018 80.7604 37.1412 78.7771 36.7558C77.5584 19.1647 62.8949 5.21484 45 5.21484C27.1051 5.21484 12.4417 19.1647 11.2229 36.7556C9.23973 37.141 7.44234 38.0018 5.88867 39.1777V39.1113C5.88867 17.5441 23.4328 0 45 0Z" fill="black" fill-opacity="0.36"/>
</svg>
