<svg width="16" height="16" viewBox="0 0 16 16" fill="none" xmlns="http://www.w3.org/2000/svg">
<path d="M12.76 8.6241C12.784 8.4241 12.8 8.2161 12.8 8.0001C12.8 7.7841 12.784 7.5761 12.752 7.3761L14.104 6.3201C14.224 6.2241 14.256 6.0481 14.184 5.9121L12.904 3.6961C12.824 3.5521 12.656 3.5041 12.512 3.5521L10.92 4.1921C10.584 3.9361 10.232 3.7281 9.84003 3.5681L9.60003 1.8721C9.57603 1.7121 9.44003 1.6001 9.28003 1.6001H6.72003C6.56003 1.6001 6.43203 1.7121 6.40803 1.8721L6.16803 3.5681C5.77603 3.7281 5.41603 3.9441 5.08803 4.1921L3.49603 3.5521C3.35203 3.4961 3.18403 3.5521 3.10403 3.6961L1.82403 5.9121C1.74403 6.0561 1.77603 6.2241 1.90403 6.3201L3.25603 7.3761C3.22403 7.5761 3.20003 7.7921 3.20003 8.0001C3.20003 8.2081 3.21603 8.4241 3.24803 8.6241L1.89603 9.6801C1.77603 9.7761 1.74403 9.9521 1.81603 10.0881L3.09603 12.3041C3.17603 12.4481 3.34403 12.4961 3.48803 12.4481L5.08003 11.8081C5.41603 12.0641 5.76803 12.2721 6.16003 12.4321L6.40003 14.1281C6.43203 14.2881 6.56003 14.4001 6.72003 14.4001H9.28003C9.44003 14.4001 9.57603 14.2881 9.59203 14.1281L9.83203 12.4321C10.224 12.2721 10.584 12.0561 10.912 11.8081L12.504 12.4481C12.648 12.5041 12.816 12.4481 12.896 12.3041L14.176 10.0881C14.256 9.9441 14.224 9.7761 14.096 9.6801L12.76 8.6241ZM8.00003 10.4001C6.68003 10.4001 5.60003 9.3201 5.60003 8.0001C5.60003 6.6801 6.68003 5.6001 8.00003 5.6001C9.32003 5.6001 10.4 6.6801 10.4 8.0001C10.4 9.3201 9.32003 10.4001 8.00003 10.4001Z" fill="black" fill-opacity="0.54"/>
</svg>
