<svg width="78" height="64" viewBox="0 0 78 64" fill="none" xmlns="http://www.w3.org/2000/svg">
<g clip-path="url(#clip0)">
<path d="M4.2294 60.9855C5.29284 62.9576 7.54983 63.8043 7.54983 63.8043C7.54983 63.8043 8.08265 61.4533 7.01922 59.4812C5.95578 57.509 3.69879 56.6624 3.69879 56.6624C3.69879 56.6624 3.16597 59.0133 4.2294 60.9855Z" fill="#2F2E41"/>
<path d="M4.96034 60.3362C6.88027 61.4913 7.6197 63.7856 7.6197 63.7856C7.6197 63.7856 5.2463 64.2071 3.32636 63.052C1.40642 61.897 0.666992 59.6026 0.666992 59.6026C0.666992 59.6026 3.0404 59.1811 4.96034 60.3362Z" fill="#6C63FF"/>
<path d="M48.0056 3.07251H36.0265V3.24364H48.0056V3.07251Z" fill="#F2F2F2"/>
<path d="M44.7541 3.20093H44.583V4.78388H44.7541V3.20093Z" fill="#F2F2F2"/>
<path d="M39.5346 3.20093H39.3635V4.78388H39.5346V3.20093Z" fill="#F2F2F2"/>
<path d="M54.0806 11.2869H42.1016V11.458H54.0806V11.2869Z" fill="#F2F2F2"/>
<path d="M45.5242 9.74658H45.3531V11.3295H45.5242V9.74658Z" fill="#F2F2F2"/>
<path d="M50.7436 9.74658H50.5725V11.3295H50.7436V9.74658Z" fill="#F2F2F2"/>
<path d="M69.9957 15.1372H58.0166V15.3083H69.9957V15.1372Z" fill="#F2F2F2"/>
<path d="M61.4392 13.5969H61.268V15.1799H61.4392V13.5969Z" fill="#F2F2F2"/>
<path d="M66.6586 13.5969H66.4875V15.1799H66.6586V13.5969Z" fill="#F2F2F2"/>
<path d="M68.7978 54.8391H56.8187V55.0102H68.7978V54.8391Z" fill="#F2F2F2"/>
<path d="M60.2413 53.2991H60.0702V54.882H60.2413V53.2991Z" fill="#F2F2F2"/>
<path d="M65.4607 53.2991H65.2896V54.882H65.4607V53.2991Z" fill="#F2F2F2"/>
<path d="M48.3478 27.3728H36.3687V27.5439H48.3478V27.3728Z" fill="#F2F2F2"/>
<path d="M39.7913 25.8328H39.6202V27.4157H39.7913V25.8328Z" fill="#F2F2F2"/>
<path d="M45.0108 25.8328H44.8397V27.4157H45.0108V25.8328Z" fill="#F2F2F2"/>
<path d="M52.1126 47.9941H40.1336V48.1653H52.1126V47.9941Z" fill="#F2F2F2"/>
<path d="M43.5562 46.4539H43.385V48.0368H43.5562V46.4539Z" fill="#F2F2F2"/>
<path d="M48.7757 46.4539H48.6045V48.0368H48.7757V46.4539Z" fill="#F2F2F2"/>
<path d="M71.2792 41.7478H59.3001V41.9189H71.2792V41.7478Z" fill="#F2F2F2"/>
<path d="M62.7226 40.2075H62.5515V41.7904H62.7226V40.2075Z" fill="#F2F2F2"/>
<path d="M67.9421 40.2075H67.771V41.7904H67.9421V40.2075Z" fill="#F2F2F2"/>
<path d="M31.6466 60.0824H11.386V59.9367H31.5008V52.8673H13.0893L12.1949 51.004L12.3263 50.9409L13.181 52.7215H31.6466V60.0824Z" fill="#2F2E41"/>
<path d="M14.0825 63.6535C14.9278 63.6535 15.613 62.9683 15.613 62.123C15.613 61.2777 14.9278 60.5925 14.0825 60.5925C13.2373 60.5925 12.5521 61.2777 12.5521 62.123C12.5521 62.9683 13.2373 63.6535 14.0825 63.6535Z" fill="#3F3D56"/>
<path d="M29.1687 63.6535C30.0139 63.6535 30.6991 62.9683 30.6991 62.123C30.6991 61.2777 30.0139 60.5925 29.1687 60.5925C28.3234 60.5925 27.6382 61.2777 27.6382 62.123C27.6382 62.9683 28.3234 63.6535 29.1687 63.6535Z" fill="#3F3D56"/>
<path d="M46.9513 30.5658C47.4746 30.5658 47.8988 30.1416 47.8988 29.6183C47.8988 29.0951 47.4746 28.6709 46.9513 28.6709C46.4281 28.6709 46.0039 29.0951 46.0039 29.6183C46.0039 30.1416 46.4281 30.5658 46.9513 30.5658Z" fill="#3F3D56"/>
<path d="M33.8135 50.4621H11.0406L6.11307 34.3557H38.8882L38.8583 34.4505L33.8135 50.4621ZM11.1484 50.3164H33.7066L38.6894 34.5015H6.31007L11.1484 50.3164Z" fill="#2F2E41"/>
<path d="M32.0359 49.6238H12.0336L7.70554 35.3394H36.493L36.4668 35.4235L32.0359 49.6238Z" fill="#F2F2F2"/>
<path d="M39.2965 32.9169L39.1555 32.8795L40.1174 29.2542H45.7124V29.4H40.2296L39.2965 32.9169Z" fill="#2F2E41"/>
<path d="M37.2503 39.2385H7.70541V39.3844H37.2503V39.2385Z" fill="#2F2E41"/>
<path d="M35.5584 44.6086H9.34833V44.7544H35.5584V44.6086Z" fill="#2F2E41"/>
<path d="M22.5731 34.4287H22.4273V50.3893H22.5731V34.4287Z" fill="#2F2E41"/>
<path d="M29.099 34.424L28.0527 50.3843L28.1981 50.3938L29.2444 34.4336L29.099 34.424Z" fill="#2F2E41"/>
<path d="M15.9044 34.4239L15.7589 34.4333L16.7992 50.3941L16.9447 50.3846L15.9044 34.4239Z" fill="#2F2E41"/>
<path d="M77.333 63.7458H0.666992V63.917H77.333V63.7458Z" fill="#2F2E41"/>
<path d="M51.6132 5.29445C51.6132 5.29445 52.864 8.85448 52.0942 9.40218C51.3245 9.94988 54.6921 14.4227 54.6921 14.4227L58.7332 13.3273L56.5202 9.58474C56.5202 9.58474 56.2316 5.84214 56.2316 5.29445C56.2316 4.74675 51.6132 5.29445 51.6132 5.29445Z" fill="#A0616A"/>
<path opacity="0.1" d="M51.6132 5.29445C51.6132 5.29445 52.864 8.85448 52.0942 9.40218C51.3245 9.94988 54.6921 14.4227 54.6921 14.4227L58.7332 13.3273L56.5202 9.58474C56.5202 9.58474 56.2316 5.84214 56.2316 5.29445C56.2316 4.74675 51.6132 5.29445 51.6132 5.29445Z" fill="black"/>
<path d="M49.5137 30.6711C49.5137 30.6711 49.1485 35.2352 49.5137 37.6086C49.8788 39.9819 50.4265 46.5543 50.4265 46.5543C50.4265 46.5543 50.4265 58.9688 52.4347 59.1513C54.4429 59.3339 55.9034 59.5165 56.086 58.7862C56.2686 58.0559 55.1732 57.6908 55.7209 57.3257C56.2686 56.9605 56.4511 55.6826 55.7209 54.2221C54.9906 52.7615 55.7209 37.9737 55.7209 37.9737L59.1896 47.2846C59.1896 47.2846 59.5547 54.9523 59.9199 56.0477C60.285 57.1431 59.5547 59.1513 60.8327 59.3339C62.1107 59.5165 63.5712 58.4211 64.3014 58.0559C65.0317 57.6908 63.206 57.6908 63.5712 57.5082C63.9363 57.3257 65.0317 56.778 64.6666 56.5954C64.3014 56.4128 63.9363 47.6497 63.9363 47.6497C63.9363 47.6497 62.9322 28.9367 61.6542 28.2065C60.3763 27.4762 59.5547 28.734 59.5547 28.734L49.5137 30.6711Z" fill="#2F2E41"/>
<path d="M52.7998 58.4211V59.8817C52.7998 59.8817 51.1567 63.8518 52.7998 63.8518C54.4429 63.8518 55.7209 64.2632 55.7209 63.7155V58.7863L52.7998 58.4211Z" fill="#2F2E41"/>
<path d="M63.5712 58.4185V59.879C63.5712 59.879 65.2143 63.8491 63.5712 63.8491C61.9281 63.8491 60.6502 64.2605 60.6502 63.7128V58.7836L63.5712 58.4185Z" fill="#2F2E41"/>
<path d="M54.1691 7.94151C55.984 7.94151 57.4553 6.47023 57.4553 4.65532C57.4553 2.84041 55.984 1.36914 54.1691 1.36914C52.3542 1.36914 50.8829 2.84041 50.8829 4.65532C50.8829 6.47023 52.3542 7.94151 54.1691 7.94151Z" fill="#A0616A"/>
<path d="M53.165 10.7712C53.165 10.7712 54.0778 13.5097 55.5383 12.962L56.9988 12.4143L59.5548 29.9406C59.5548 29.9406 57.5465 32.8617 54.6255 31.036C51.7044 29.2104 53.165 10.7712 53.165 10.7712Z" fill="#6C63FF"/>
<path d="M55.7209 10.2236L56.5424 8.48926C56.5424 8.48926 61.3804 10.7713 62.1107 11.5016C62.8409 12.2319 62.8409 13.3272 62.8409 13.3272L61.563 17.8914C61.563 17.8914 61.9281 27.9325 61.9281 28.2976C61.9281 28.6628 63.2061 30.671 62.2933 29.9407C61.3804 29.2105 61.1979 28.4802 60.4676 29.5756C59.7373 30.671 58.0942 31.9489 58.0942 31.9489L55.7209 10.2236Z" fill="#3F3D56"/>
<path d="M62.1107 23.3684L61.563 28.4802C61.563 28.4802 58.2768 31.4013 59.0071 31.5839C59.7373 31.7664 60.1025 31.0362 60.1025 31.0362C60.1025 31.0362 61.3804 32.3141 62.1107 31.5839C62.8409 30.8536 64.6666 23.9161 64.6666 23.9161L62.1107 23.3684Z" fill="#A0616A"/>
<path d="M54.2391 0.0111124C53.5106 -0.014931 52.731 -0.0278137 52.1167 0.364769C51.8341 0.56179 51.5862 0.80444 51.3832 1.08279C50.785 1.83905 50.2681 2.7906 50.4903 3.72891L50.7484 3.62825C50.7484 3.87872 50.6927 4.12605 50.5854 4.35235C50.6217 4.24667 50.7435 4.41751 50.7109 4.52441L50.4266 5.45713C50.8939 5.28579 51.4753 5.63269 51.5465 6.12536C51.579 5.042 51.6913 3.79974 52.5702 3.16539C53.0134 2.84549 53.5742 2.74784 54.1139 2.66112C54.6117 2.58111 55.1336 2.50482 55.6105 2.66872C56.0874 2.83261 56.4934 3.32029 56.3853 3.8128C56.6052 3.73706 56.8511 3.89029 56.9598 4.09589C57.0684 4.3015 57.0741 4.54404 57.0774 4.77657C57.3118 4.94221 57.5785 4.61329 57.674 4.34266C57.8982 3.7074 58.0975 3.03117 57.9767 2.36842C57.8559 1.70567 57.3159 1.07231 56.6422 1.07006C56.724 0.980249 56.7676 0.86215 56.7639 0.740747L56.2086 0.693831C56.3496 0.673872 56.4792 0.605524 56.5753 0.500494C56.3524 0.745802 54.5996 0.0239993 54.2391 0.0111124Z" fill="#2F2E41"/>
<path d="M54.0778 9.6758C54.0778 9.6758 52.5916 8.21941 52.0568 8.30862C51.5219 8.39784 50.7916 9.6758 50.7916 9.6758C50.7916 9.6758 46.4101 11.1363 46.5926 12.5968C46.7752 14.0574 48.7834 21.1774 48.7834 21.1774C48.7834 21.1774 50.4265 29.758 48.966 30.6708C47.5054 31.5837 55.9035 33.957 56.086 32.8616C56.2686 31.7662 56.6337 20.8123 56.086 19.1692C55.5383 17.5261 54.0778 9.6758 54.0778 9.6758Z" fill="#3F3D56"/>
<path d="M60.4676 12.5972H62.725C62.725 12.5972 64.3015 19.5347 64.484 20.2649C64.6666 20.9952 65.0317 24.4639 64.8491 24.4639C64.6666 24.4639 61.0153 23.7337 61.0153 24.2814L60.4676 12.5972Z" fill="#3F3D56"/>
<path d="M60.3912 29.7766H51.7492C50.9058 25.8971 50.8354 22.1488 51.7492 18.5676H60.3912C58.9965 22.0844 58.9094 25.807 60.3912 29.7766Z" fill="#F2F2F2"/>
<path d="M48.2357 25.0116L50.7916 26.107C50.7916 26.107 55.7209 26.8373 55.7209 24.8291C55.7209 22.8209 50.7916 23.9162 50.7916 23.9162L49.1484 23.3909L48.2357 25.0116Z" fill="#A0616A"/>
<path d="M48.7834 11.5017L46.5926 12.0494L44.9495 21.7254C44.9495 21.7254 44.4018 24.2813 45.3146 24.4639C46.2275 24.6465 48.7834 26.107 48.7834 26.107C48.7834 26.107 49.1485 23.3685 49.8788 23.3685L48.0531 21.908L49.1485 15.5182L48.7834 11.5017Z" fill="#3F3D56"/>
<path d="M17.8012 30.1965H5.82214V30.3677H17.8012V30.1965Z" fill="#F2F2F2"/>
<path d="M9.24474 28.6562H9.07361V30.2392H9.24474V28.6562Z" fill="#F2F2F2"/>
<path d="M14.4642 28.6562H14.2931V30.2392H14.4642V28.6562Z" fill="#F2F2F2"/>
<path d="M21.9939 4.86938H10.0148V5.04051H21.9939V4.86938Z" fill="#F2F2F2"/>
<path d="M18.7424 4.9978H18.5713V6.58075H18.7424V4.9978Z" fill="#F2F2F2"/>
<path d="M13.523 4.9978H13.3518V6.58075H13.523V4.9978Z" fill="#F2F2F2"/>
<path d="M34.0585 21.7256H22.0794V21.8967H34.0585V21.7256Z" fill="#F2F2F2"/>
<path d="M30.807 21.854H30.6359V23.437H30.807V21.854Z" fill="#F2F2F2"/>
<path d="M25.5876 21.854H25.4164V23.437H25.5876V21.854Z" fill="#F2F2F2"/>
<path d="M13.6941 21.6401H1.71503V21.8113H13.6941V21.6401Z" fill="#F2F2F2"/>
<path d="M10.4426 21.7683H10.2715V23.3513H10.4426V21.7683Z" fill="#F2F2F2"/>
<path d="M5.22319 21.7683H5.05206V23.3513H5.22319V21.7683Z" fill="#F2F2F2"/>
<path d="M28.069 13.0835H16.0899V13.2546H28.069V13.0835Z" fill="#F2F2F2"/>
<path d="M19.5125 11.5435H19.3413V13.1264H19.5125V11.5435Z" fill="#F2F2F2"/>
<path d="M24.7319 11.5435H24.5608V13.1264H24.7319V11.5435Z" fill="#F2F2F2"/>
</g>
<defs>
<clipPath id="clip0">
<rect width="76.666" height="64" fill="white" transform="translate(0.666992)"/>
</clipPath>
</defs>
</svg>
