<svg width="16" height="18" viewBox="0 0 16 18" fill="none" xmlns="http://www.w3.org/2000/svg">
<path d="M15.724 16.5086C15.6724 16.3789 14.7187 11.356 10.5676 7.51085L11.2023 6.19629C11.4746 5.65211 11.6983 5.0812 11.8673 4.49947C12.0373 3.91556 12.155 3.31274 12.217 2.70773C12.2182 2.69582 12.2188 2.68386 12.2188 2.67188V1.05469C12.2188 0.473133 11.7457 0 11.1641 0C10.5826 0 10.1095 0.473133 10.1095 1.05469V1.717C9.77948 1.83171 9.35015 2.01023 8.90075 2.27633C8.58877 2.46132 8.28625 2.68035 7.99818 2.92957C7.71092 2.6807 7.4084 2.46164 7.09547 2.27612C6.64698 2.01094 6.21857 1.83259 5.89067 1.7183V1.05469C5.89067 0.473133 5.41753 0 4.83598 0C4.25442 0 3.78129 0.473133 3.78129 1.05469V2.67188C3.78129 2.6839 3.78192 2.69596 3.78315 2.70791C3.90919 3.93047 4.2521 5.1075 4.8024 6.20652L5.43849 7.51106C1.30601 11.322 0.339597 16.2482 0.27628 16.4057C0.260144 16.47 0.267562 16.5097 0.265698 16.5938C0.265698 17.3692 0.896542 18 1.67195 18C2.0915 18 2.46877 17.8153 2.72664 17.5229C2.98451 17.8153 3.36177 18 3.78133 18C4.20088 18 4.57814 17.8153 4.83601 17.5229C5.09389 17.8153 5.47115 18 5.8907 18C6.31026 18 6.68752 17.8153 6.94539 17.5229C7.20326 17.8153 7.58052 18 8.00008 18C8.41963 18 8.7969 17.8153 9.05477 17.5229C9.31264 17.8153 9.6899 18 10.1095 18C10.529 18 10.9063 17.8153 11.1641 17.5229C11.422 17.8153 11.7993 18 12.2188 18C12.6384 18 13.0156 17.8153 13.2735 17.5229C13.5314 17.8153 13.9087 18 14.3282 18C15.1036 18 15.7345 17.3692 15.7345 16.5938C15.7345 16.5651 15.7309 16.5365 15.724 16.5086ZM5.40396 5.83594C4.91058 4.83444 4.60103 3.76443 4.48442 2.65363V1.05469C4.48442 0.860836 4.64213 0.703125 4.83598 0.703125C5.02983 0.703125 5.18754 0.860836 5.18754 1.05469V1.97332C5.18754 2.12829 5.28904 2.26501 5.43736 2.30984L5.45856 2.31638C5.76643 2.41112 6.23822 2.58606 6.7372 2.88113C7.09347 3.09234 7.43596 3.35401 7.75515 3.65882C7.89088 3.78844 8.10449 3.78861 8.24044 3.6591C8.56117 3.35363 8.90398 3.09185 9.25917 2.88127C9.75821 2.58578 10.23 2.41102 10.5382 2.31634L10.5638 2.3085C10.7116 2.26329 10.8126 2.12685 10.8126 1.9723V1.05469C10.8126 0.860836 10.9703 0.703125 11.1641 0.703125C11.358 0.703125 11.5157 0.860836 11.5157 1.05469V2.65373C11.4576 3.21064 11.3487 3.76541 11.1922 4.30312C11.0397 4.82815 10.8388 5.3434 10.5957 5.83594H5.40396ZM10.256 6.53906L9.91655 7.24219C9.50164 7.24219 6.58581 7.24219 6.08965 7.24219L5.74684 6.53906H10.256ZM14.3282 17.2968C13.9405 17.2968 13.6251 16.9814 13.6251 16.5937C13.6251 16.3995 13.4677 16.2422 13.2735 16.2422C13.0794 16.2422 12.922 16.3995 12.922 16.5937C12.922 16.9814 12.6065 17.2968 12.2188 17.2968C11.8311 17.2968 11.5157 16.9814 11.5157 16.5937C11.5157 16.3995 11.3583 16.2422 11.1641 16.2422C10.97 16.2422 10.8126 16.3995 10.8126 16.5937C10.8126 16.9814 10.4972 17.2968 10.1095 17.2968C9.72175 17.2968 9.40633 16.9814 9.40633 16.5937C9.40633 16.3995 9.2489 16.2422 9.05477 16.2422C8.86063 16.2422 8.70321 16.3995 8.70321 16.5937C8.70321 16.9814 8.38778 17.2968 8.00008 17.2968C7.61238 17.2968 7.29695 16.9814 7.29695 16.5937C7.29695 16.3995 7.13952 16.2422 6.94539 16.2422C6.75126 16.2422 6.59383 16.3995 6.59383 16.5937C6.59383 16.9814 6.27841 17.2968 5.8907 17.2968C5.503 17.2968 5.18758 16.9814 5.18758 16.5937C5.18758 16.3995 5.03015 16.2422 4.83601 16.2422C4.64188 16.2422 4.48445 16.3995 4.48445 16.5937C4.48445 16.9814 4.16903 17.2968 3.78133 17.2968C3.39362 17.2968 3.0782 16.9814 3.0782 16.5937C3.0782 16.3995 2.92077 16.2422 2.72664 16.2422C2.5325 16.2422 2.37507 16.3995 2.37507 16.5937C2.37507 16.9814 2.05965 17.2968 1.67195 17.2968C1.28425 17.2968 0.968824 16.9814 0.968824 16.5937V16.535C0.989601 16.4844 1.93678 11.633 6.00478 7.9418H6.33726C5.802 8.98218 5.33745 10.1507 4.95375 11.4178C4.8975 11.6036 5.00255 11.7998 5.18835 11.8561C5.37457 11.9124 5.57053 11.8071 5.62675 11.6215C6.03839 10.262 6.54464 9.02654 7.13242 7.94531H7.64855V10.4062C7.64855 10.6004 7.80598 10.7578 8.00011 10.7578C8.19425 10.7578 8.35168 10.6004 8.35168 10.4062V7.94531H8.87445C9.45305 9.01431 9.95287 10.2412 10.361 11.5961C10.4174 11.7833 10.6144 11.887 10.7991 11.8313C10.985 11.7753 11.0903 11.5792 11.0343 11.3933C10.6541 10.1314 10.1956 8.97469 9.6687 7.94528H10.0019C14.049 11.6365 14.989 16.5316 15.0303 16.6326C15.01 17.0023 14.7029 17.2968 14.3282 17.2968Z" fill="black"/>
</svg>
