<svg width="24" height="21" viewBox="0 0 24 21" fill="none" xmlns="http://www.w3.org/2000/svg">
<path d="M22.1095 2.21128C20.9304 1.01723 19.3045 0.359619 17.5312 0.359619C14.4311 0.359619 12.8282 1.95478 12.0295 3.29292C12.0195 3.30951 12.0097 3.32615 12 3.34274C11.9903 3.32615 11.9805 3.30951 11.9705 3.29292C11.1718 1.95478 9.56888 0.359619 6.46875 0.359619C4.69552 0.359619 3.06961 1.01723 1.89047 2.21132C0.653719 3.46378 0 5.17823 0 7.16934C0 11.3974 3.75848 14.2006 7.07447 16.6739C8.72677 17.9062 10.2874 19.0703 11.2697 20.2907C11.4476 20.5118 11.7162 20.6404 12 20.6404C12.2838 20.6404 12.5524 20.5118 12.7304 20.2908C13.2356 19.663 13.9379 18.9956 14.9406 18.1902C15.3442 17.866 15.4087 17.2759 15.0844 16.8722C14.7602 16.4686 14.1701 16.4041 13.7664 16.7283C13.059 17.2965 12.4804 17.8104 12.0004 18.2988C10.9407 17.2185 9.59934 16.218 8.19548 15.1709C5.08814 12.8533 1.875 10.4567 1.875 7.16934C1.875 4.26384 3.76402 2.23462 6.46875 2.23462C8.22745 2.23462 9.52608 2.89626 10.3284 4.20112C10.9655 5.23692 11.0646 6.31509 11.0652 6.32174C11.1028 6.81014 11.51 7.18931 11.9998 7.18931C12.4897 7.18931 12.8968 6.81426 12.9344 6.32587C12.9353 6.31509 13.0344 5.23692 13.6715 4.20112C14.4739 2.89626 15.7725 2.23462 17.5312 2.23462C20.236 2.23462 22.125 4.26384 22.125 7.16934C22.125 9.88987 19.9101 11.9992 17.5165 13.8733C17.1089 14.1924 17.0371 14.7817 17.3563 15.1894C17.6754 15.597 18.2647 15.6688 18.6724 15.3495C19.811 14.458 21.2542 13.2533 22.3157 11.8386C23.449 10.3281 24 8.80078 24 7.16934C24 5.17823 23.3463 3.46378 22.1095 2.21128Z" fill="black"/>
</svg>
