<svg width="19" height="12" viewBox="0 0 19 12" fill="none" xmlns="http://www.w3.org/2000/svg">
<path d="M17.3495 5.64978C17.2929 5.63791 17.2396 5.62674 17.1922 5.6144C16.6543 5.47454 16.4088 5.39787 16.2273 5.04742L15.5397 3.65544C15.3188 3.22887 14.7482 2.8818 14.2678 2.8818H13.0438V1.27441C13.0438 0.985802 12.809 0.750977 12.5203 0.750977L3.99471 0.759538C3.71381 0.759538 3.50198 0.982766 3.50198 1.27881V1.75391H1.31796C0.866949 1.75395 0.5 2.12086 0.5 2.57191C0.5 3.02295 0.866949 3.38987 1.31796 3.38987H3.50195V4.17385H2.07202C1.62101 4.17385 1.25406 4.5408 1.25406 4.99181C1.25406 5.44282 1.62101 5.80977 2.07202 5.80977H3.50195V6.59375H2.82607C2.37506 6.59375 2.00811 6.9607 2.00811 7.41171C2.00811 7.86272 2.37506 8.22967 2.82607 8.22967H3.50195V9.04965C3.50195 9.33826 3.73677 9.57309 4.02538 9.57309H4.91222C5.05034 10.5197 5.86732 11.249 6.85173 11.249C7.83622 11.249 8.65324 10.5197 8.7914 9.57309H12.3805C12.3991 9.57309 12.4182 9.57184 12.4373 9.5706C12.5744 10.5184 13.3919 11.249 14.3771 11.249C15.3616 11.249 16.1786 10.5197 16.3168 9.57309H17.5906C18.0921 9.57309 18.5 9.16516 18.5 8.66375V7.12077C18.5 5.89118 17.8076 5.7459 17.3495 5.64978ZM14.3771 8.57627C14.7702 8.57627 15.09 8.89593 15.09 9.28888C15.09 9.68182 14.7702 10.0015 14.3771 10.0015C13.9842 10.0015 13.6646 9.68182 13.6646 9.28888C13.6646 8.89593 13.9842 8.57627 14.3771 8.57627ZM13.0438 5.53894V3.64096H13.9792C14.3387 3.64096 14.7822 3.91073 14.9468 4.22837L15.5586 5.46706C15.5716 5.49213 15.5851 5.51602 15.599 5.5389H13.0438V5.53894ZM7.56458 9.28884C7.56458 9.68174 7.24479 10.0014 6.85173 10.0014C6.45883 10.0014 6.1392 9.68178 6.1392 9.28884C6.1392 8.89589 6.45883 8.57623 6.85173 8.57623C7.24479 8.57627 7.56458 8.89593 7.56458 9.28884Z" fill="#FAFAFA"/>
</svg>
