<svg width="312" height="211" viewBox="0 0 312 211" fill="none" xmlns="http://www.w3.org/2000/svg">
<g clip-path="url(#clip0)">
<path d="M272.474 60.8547H230.897C225.269 45.6123 222.825 31.4397 230.897 20.8012C230.897 18.0696 231.434 15.3647 232.479 12.841C233.524 10.3172 235.055 8.02412 236.986 6.09255C238.916 4.16097 241.208 2.62876 243.73 1.58341C246.252 0.538045 248.955 5.71826e-06 251.685 5.71826e-06H251.685C255.003 -0.00245717 258.273 0.790699 261.222 2.31303C264.17 3.83535 266.711 6.04252 268.631 8.74962C271.917 13.3665 272.575 19.3181 270.691 24.6631C267.333 34.1892 269.383 47.1879 272.474 60.8547Z" fill="#2F2E41"/>
<path d="M294.432 211C293.229 211 292.058 210.614 291.09 209.898C290.122 209.183 289.409 208.176 289.055 207.026L287.342 201.455C286.945 200.166 286.869 198.8 287.12 197.475L288.286 191.305H296.469L299.865 203.904C300.09 204.739 300.119 205.614 299.952 206.462C299.784 207.31 299.424 208.107 298.899 208.794C298.373 209.48 297.697 210.036 296.923 210.418C296.148 210.801 295.296 211 294.432 211Z" fill="#2F2E41"/>
<path d="M234.813 211C236.017 211 237.188 210.614 238.156 209.898C239.124 209.183 239.837 208.176 240.191 207.026L241.904 201.455C242.3 200.166 242.376 198.8 242.126 197.475L240.959 191.305H232.776L229.381 203.904C229.156 204.739 229.126 205.614 229.294 206.462C229.461 207.31 229.822 208.107 230.347 208.794C230.872 209.48 231.548 210.036 232.323 210.418C233.097 210.801 233.95 211 234.813 211Z" fill="#2F2E41"/>
<path d="M297.132 191.969H288.065L248.7 117.173L241.437 191.969H233.44C229.337 144.869 219.355 100.004 233.44 83.0945L266.392 86.1925L297.132 191.969Z" fill="#2F2E41"/>
<path d="M250.579 32.5299C256.686 32.5299 261.637 27.5761 261.637 21.4654C261.637 15.3546 256.686 10.4009 250.579 10.4009C244.472 10.4009 239.522 15.3546 239.522 21.4654C239.522 27.5761 244.472 32.5299 250.579 32.5299Z" fill="#9F616A"/>
<path d="M266.171 64.0633H241.623L237.421 44.5898C245.573 42.18 247.516 36.5752 245.825 29.0995L259.094 28.2144C259.846 34.2362 261.222 39.851 269.709 40.8279L266.171 64.0633Z" fill="#9F616A"/>
<path d="M266.171 88.4051C252.243 93.6965 240.913 93.5314 232.998 86.1922C236.569 74.4059 236.783 59.892 235.209 43.9258L239.632 41.9342L241.18 56.0968L263.075 54.9903L267.94 39.5L272.806 40.6065C273.178 59.8122 272.029 77.09 266.171 88.4051Z" fill="#E6E6E6"/>
<path d="M278.998 112.304L281.598 120.761C281.809 121.446 281.856 122.171 281.735 122.877C281.615 123.584 281.331 124.253 280.905 124.829C280.48 125.406 279.925 125.874 279.285 126.197C278.646 126.52 277.939 126.688 277.223 126.688C276.582 126.688 275.948 126.554 275.362 126.293C274.776 126.032 274.251 125.651 273.822 125.174C273.393 124.697 273.068 124.135 272.87 123.525C272.671 122.915 272.603 122.27 272.67 121.632L273.69 111.862L269.488 78.6684L272.584 64.0632H280.325L278.998 112.304Z" fill="#9F616A"/>
<path d="M217.058 110.546L212.488 118.12C212.118 118.734 211.897 119.426 211.842 120.141C211.788 120.855 211.902 121.573 212.176 122.235C212.449 122.898 212.874 123.487 213.416 123.955C213.959 124.424 214.603 124.758 215.298 124.932C215.92 125.087 216.568 125.11 217.2 124.999C217.831 124.888 218.433 124.645 218.964 124.286C219.496 123.928 219.947 123.462 220.287 122.918C220.627 122.374 220.85 121.764 220.939 121.129L222.314 111.403L234.425 80.2156L236.868 65.2805L227.447 63.4192L217.058 110.546Z" fill="#9F616A"/>
<path d="M285.854 65.8337L271.257 65.6124V40.1641L273.505 40.492C275.89 40.8401 278.089 41.9806 279.748 43.7303C281.407 45.48 282.43 47.7371 282.653 50.1388L285.854 65.8337Z" fill="#E6E6E6"/>
<path d="M223.488 68.489L238.084 68.2677V42.8193L235.837 43.1473C233.452 43.4953 231.253 44.6359 229.593 46.3856C227.934 48.1353 226.911 50.3924 226.689 52.7941L223.488 68.489Z" fill="#E6E6E6"/>
<path d="M260.753 16.1541C256.055 18.8135 247.028 20.0299 240.406 18.1457L238.195 6.63867H260.089L260.753 16.1541Z" fill="#2F2E41"/>
<path d="M86.8552 152.738H14.8328V210.821H86.8552V152.738Z" fill="#E6E6E6"/>
<path d="M56.9354 193.969H44.7525V210.462H56.9354V193.969Z" fill="#2D296B"/>
<path d="M175.37 154.452L177.287 149.338L195.178 139.108L207.319 136.55L175.37 154.452Z" fill="#2D296B"/>
<path d="M109.555 154.452L107.638 149.338L89.7472 139.108L77.6066 136.55L109.555 154.452Z" fill="#2D296B"/>
<path d="M176.648 155.731H108.277L102.527 128.878H182.398L176.648 155.731Z" fill="#2D296B"/>
<path opacity="0.1" d="M176.648 155.731H108.277L102.527 128.878H182.398L176.648 155.731Z" fill="black"/>
<path d="M176.967 154.133H107.958V210.821H176.967V154.133Z" fill="#2D296B"/>
<path d="M148.554 193.961H136.371V210.454H148.554V193.961Z" fill="#3F3D56"/>
<path d="M311.358 210.889H0.5V210.106H311.5L311.358 210.889Z" fill="#3F3D56"/>
<path d="M156.795 165.735H128.13V174.698H156.795V165.735Z" fill="white"/>
<path d="M64.9866 165.735H36.321V174.698H64.9866V165.735Z" fill="white"/>
</g>
<defs>
<clipPath id="clip0">
<rect width="311" height="211" fill="white" transform="translate(0.5)"/>
</clipPath>
</defs>
</svg>
