<svg width="24" height="24" viewBox="0 0 24 24" fill="none" xmlns="http://www.w3.org/2000/svg">
<path d="M14.7782 5.84716C14.995 5.84716 15.2078 5.75963 15.3613 5.60548C15.5146 5.4522 15.6029 5.24016 15.6029 5.02246C15.6029 4.8055 15.5146 4.59279 15.3613 4.43936C15.2079 4.28592 14.995 4.19775 14.7782 4.19775C14.5612 4.19775 14.3485 4.28592 14.1951 4.43936C14.0417 4.59271 13.9535 4.80542 13.9535 5.02246C13.9535 5.23933 14.0417 5.45212 14.1951 5.60548C14.3485 5.75966 14.5612 5.84716 14.7782 5.84716Z" fill="black"/>
<path d="M19.3892 11.4297C19.6061 11.4297 19.8188 11.3414 19.9723 11.1881C20.1256 11.0339 20.2139 10.8219 20.2139 10.605C20.2139 10.3873 20.1256 10.1753 19.9723 10.0219C19.8181 9.86777 19.6061 9.78027 19.3892 9.78027C19.1723 9.78027 18.9596 9.86781 18.8061 10.0219C18.6519 10.1753 18.5645 10.3873 18.5645 10.605C18.5645 10.8219 18.6519 11.0339 18.8061 11.1881C18.9596 11.3414 19.1715 11.4297 19.3892 11.4297Z" fill="black"/>
<path d="M1.24929 11.4297C1.467 11.4297 1.67896 11.3414 1.83239 11.1881C1.98579 11.0339 2.07399 10.8219 2.07399 10.605C2.07399 10.3873 1.98575 10.1753 1.83239 10.0219C1.67892 9.86777 1.46617 9.78027 1.24929 9.78027C1.03234 9.78027 0.819625 9.86781 0.666192 10.0219C0.512799 10.1753 0.424591 10.3873 0.424591 10.605C0.424591 10.8219 0.512839 11.0339 0.666192 11.1881C0.819625 11.3414 1.0323 11.4297 1.24929 11.4297Z" fill="black"/>
<path d="M11.0165 22.3392C10.7997 22.3392 10.587 22.4276 10.4334 22.5808C10.2801 22.7342 10.1927 22.9471 10.1927 23.1648C10.1927 23.3817 10.2801 23.5937 10.4334 23.7479C10.5877 23.9012 10.7997 23.9887 11.0165 23.9887C11.2334 23.9887 11.4462 23.9013 11.5997 23.7479C11.7538 23.5937 11.8413 23.3817 11.8413 23.1648C11.8413 22.9471 11.7538 22.7352 11.5997 22.5808C11.4462 22.4275 11.2343 22.3392 11.0165 22.3392Z" fill="black"/>
<path d="M19.3892 1.66076C19.6061 1.66076 19.8188 1.57251 19.9723 1.41916C20.1256 1.26576 20.2139 1.05293 20.2139 0.836056C20.2139 0.619181 20.1256 0.406388 19.9723 0.253034C19.8189 0.09964 19.6061 0.0113525 19.3892 0.0113525C19.1715 0.0113525 18.9587 0.0996797 18.8061 0.253034C18.6519 0.406308 18.5645 0.619181 18.5645 0.836056C18.5645 1.05293 18.6519 1.26572 18.8061 1.41916C18.9596 1.57251 19.1715 1.66076 19.3892 1.66076Z" fill="black"/>
<path d="M18.9644 4.8392L19.6588 5.68939L19.5783 6.80055L20.572 6.37778L21.5655 6.80055L21.4851 5.68939L22.1797 4.8392L21.1364 4.57517L20.572 3.62708L20.0077 4.57517L18.9644 4.8392Z" fill="black"/>
<path d="M1.86351 5.40504L2.85722 4.98226L3.85073 5.40504L3.77041 4.29372L4.46506 3.44377L3.42158 3.17978L2.85722 2.23157L2.29262 3.17978L1.24954 3.44377L1.94415 4.29372L1.86351 5.40504Z" fill="black"/>
<path d="M24 18.4121L22.9565 18.1481L22.3922 17.1998L21.8277 18.1481L20.7843 18.4121L21.4791 19.2622L21.3985 20.3733L22.3922 19.9506L23.3858 20.3733L23.3053 19.2622L24 18.4121Z" fill="black"/>
<path d="M2.99685 19.9262L2.43249 18.9779L1.86786 19.9262L0.824738 20.19L1.51943 21.0402L1.43871 22.1513L2.43249 21.7286L3.42608 22.1513L3.34552 21.0402L4.04025 20.19L2.99685 19.9262Z" fill="black"/>
<path d="M13.113 2.51572L13.8077 1.6657L12.7644 1.40179L12.1999 0.453491L11.6355 1.40179L10.592 1.6657L11.287 2.51572L11.2062 3.62708L12.1999 3.20419L13.1935 3.62708L13.113 2.51572Z" fill="black"/>
<path d="M18.0657 8.47184C18.4285 8.19814 18.5015 7.68237 18.2287 7.31872C17.9554 6.95404 17.4385 6.88041 17.0741 7.15371C17.0117 7.20059 15.5304 8.32598 14.2403 10.538C13.0578 12.5653 11.808 15.9407 12.5693 20.5089C12.6365 20.9122 12.9859 21.1982 13.3818 21.1982C13.4269 21.1982 13.4726 21.1944 13.5183 21.1867C13.9677 21.1118 14.2711 20.6869 14.1964 20.2377C13.6549 16.9886 14.1366 14.0264 15.6277 11.4334C16.7482 9.48509 18.0527 8.48179 18.0657 8.47184Z" fill="black"/>
<path d="M5.28165 7.1539C4.91792 6.88142 4.40325 6.95477 4.12939 7.31751C3.85554 7.68033 3.92793 8.19702 4.28988 8.47194C4.30288 8.48181 5.60745 9.48519 6.72785 11.4335C8.21906 14.0266 8.70068 16.9887 8.15919 20.2379C8.08437 20.6871 8.38787 21.112 8.83723 21.1869C8.88312 21.1946 8.92869 21.1983 8.97371 21.1983C9.36949 21.1983 9.719 20.9124 9.78632 20.509C10.5475 15.9409 9.29785 12.5654 8.11528 10.5381C6.82529 8.32616 5.3441 7.20077 5.28165 7.1539Z" fill="black"/>
<path d="M10.593 10.034C10.9937 10.034 11.3452 9.74152 11.4073 9.33329C11.9168 5.98744 8.73092 4.35293 8.595 4.28489C8.18733 4.08117 7.69212 4.24633 7.48852 4.65369C7.2848 5.06105 7.44988 5.5565 7.85724 5.76018C7.87979 5.77139 10.1075 6.91236 9.77666 9.08495C9.70806 9.53531 10.0175 9.95582 10.4679 10.0244C10.5099 10.0309 10.5517 10.034 10.593 10.034Z" fill="black"/>
<path d="M22.5372 13.135C22.3932 12.703 21.9265 12.469 21.494 12.6135C21.4451 12.6298 20.2866 13.0227 19.1338 13.9834C17.5705 15.2865 16.7442 17.0135 16.7442 18.9779C16.7442 19.4334 17.1134 19.8027 17.569 19.8027C18.0244 19.8027 18.3937 19.4335 18.3937 18.9779C18.3937 15.4545 21.8677 14.2288 22.0181 14.1775C22.4487 14.0325 22.6811 13.5663 22.5372 13.135Z" fill="black"/>
<path d="M0.824743 12.571C0.369198 12.571 0 12.9403 0 13.3958C0 13.8513 0.369198 14.2205 0.824743 14.2205C2.22312 14.2205 3.1726 14.7417 3.72745 15.8139C4.1698 16.6685 4.18581 17.5637 4.18605 17.5856C4.18775 18.0396 4.55639 18.4071 5.01079 18.4071C5.46621 18.4071 5.83553 18.0379 5.83553 17.5824C5.83553 17.5317 5.8286 16.3272 5.22521 15.1203C4.64381 13.9573 3.40842 12.571 0.824743 12.571Z" fill="black"/>
</svg>
