<svg width="32" height="32" viewBox="0 0 32 32" fill="none" xmlns="http://www.w3.org/2000/svg">
<g clip-path="url(#clip0)">
<path d="M27.2633 27.2645H22.5219V19.8391C22.5219 18.0685 22.4903 15.7891 20.0559 15.7891C17.5864 15.7891 17.2086 17.7184 17.2086 19.7102V27.264H12.4673V11.9945H17.0189V14.0812H17.0827C17.5382 13.3024 18.1964 12.6616 18.9873 12.2273C19.7781 11.7929 20.672 11.5812 21.5737 11.6146C26.3793 11.6146 27.2653 14.7756 27.2653 18.8879L27.2633 27.2645ZM7.1173 9.90736C5.59768 9.90761 4.36555 8.67586 4.3653 7.15624C4.36505 5.63661 5.59668 4.40449 7.1163 4.40424C8.63593 4.40386 9.86805 5.63561 9.8683 7.15524C9.86843 7.88499 9.57868 8.58491 9.06277 9.10103C8.54686 9.61715 7.84706 9.9072 7.1173 9.90736ZM9.48805 27.2646H4.74168V11.9945H9.48793V27.2645L9.48805 27.2646ZM29.6271 0.000864143H2.35918C1.07043 -0.0136359 0.0135527 1.01874 -0.00219727 2.30749V29.6891C0.0130527 30.9785 1.0698 32.0119 2.35905 31.9984H29.6271C30.9191 32.0144 31.9799 30.981 31.9978 29.6891V2.30536C31.9794 1.01411 30.9184 -0.0181359 29.6271 -0.00126086" fill="#0A66C2"/>
</g>
<defs>
<clipPath id="clip0">
<rect width="32" height="32" fill="white"/>
</clipPath>
</defs>
</svg>
