<svg width="32" height="32" viewBox="0 0 32 32" fill="none" xmlns="http://www.w3.org/2000/svg">
<g clip-path="url(#clip0)">
<path d="M8.55605 27.4069L9.07312 27.6654C11.2279 28.9582 13.641 29.5615 16.0542 29.5615C23.6384 29.5615 29.8437 23.3562 29.8437 15.772C29.8437 12.1522 28.3785 8.61865 25.7931 6.03308C23.2075 3.4475 19.76 1.98242 16.0542 1.98242C8.46994 1.98242 2.26453 8.1877 2.35077 15.8582C2.35077 18.4436 3.12643 20.9431 4.41916 23.0976L4.76387 23.6148L3.38503 28.6997L8.55605 27.4069Z" fill="#00E676"/>
<path d="M27.2582 4.65396C24.3279 1.63756 20.2772 0 16.1403 0C7.34959 0 0.282406 7.1533 0.368522 15.8579C0.368522 18.6158 1.14418 21.2877 2.43703 23.7008L0.196167 31.8883L8.55607 29.7337C10.8831 31.0265 13.4685 31.6298 16.0542 31.6298C24.7588 31.6298 31.826 24.4764 31.826 15.7719C31.826 11.5488 30.1884 7.58425 27.2583 4.65396H27.2582ZM16.1403 28.9581C13.8133 28.9581 11.4864 28.355 9.50409 27.1484L8.98702 26.8898L3.98835 28.1825L5.28108 23.2701L4.93637 22.7529C1.14418 16.6338 2.9541 8.53226 9.15938 4.74008C15.3647 0.948016 23.3799 2.75793 27.172 8.96321C30.9641 15.1685 29.1542 23.1837 22.949 26.9759C20.9666 28.2686 18.5535 28.958 16.1403 28.958V28.9581ZM23.7246 19.3918L22.7766 18.9608C22.7766 18.9608 21.3977 18.3575 20.5358 17.9265C20.4496 17.9265 20.3635 17.8403 20.2772 17.8403C20.0186 17.8403 19.8463 17.9265 19.6739 18.0128C19.6739 18.0128 19.5878 18.0989 18.3812 19.4779C18.2949 19.6502 18.1226 19.7365 17.9502 19.7365H17.864C17.7779 19.7365 17.6055 19.6502 17.5193 19.5641L17.0883 19.3918C16.1403 18.9608 15.2785 18.4436 14.589 17.7542C14.4166 17.5818 14.1581 17.4095 13.9857 17.2371C13.3824 16.6338 12.7791 15.9443 12.3483 15.1686L12.262 14.9963C12.1759 14.91 12.1759 14.8239 12.0897 14.6516C12.0897 14.4792 12.0897 14.3068 12.1759 14.2206C12.1759 14.2206 12.5206 13.7897 12.7791 13.5312C12.9516 13.3587 13.0377 13.1002 13.21 12.9279C13.3824 12.6693 13.4686 12.3246 13.3824 12.066C13.2963 11.635 12.262 9.30805 12.0035 8.79098C11.8311 8.53239 11.6588 8.44627 11.4002 8.36003H10.4522C10.2797 8.36003 10.1075 8.44627 9.93504 8.44627L9.8488 8.53239C9.67645 8.61863 9.50409 8.79098 9.33173 8.8771C9.15938 9.04958 9.07314 9.22181 8.90078 9.39429C8.29748 10.1699 7.95277 11.118 7.95277 12.066C7.95277 12.7554 8.12512 13.4449 8.38372 14.0482L8.46996 14.3068C9.24562 15.9443 10.2797 17.4095 11.6588 18.7022L12.0035 19.0469C12.262 19.3055 12.5206 19.4779 12.693 19.7363C14.5029 21.2878 16.5713 22.4082 18.8983 23.0115C19.1568 23.0976 19.5016 23.0976 19.7602 23.1838H20.6219C21.0529 23.1838 21.5699 23.0115 21.9148 22.8391C22.1732 22.6667 22.3456 22.6667 22.518 22.4944L22.6904 22.3219C22.8628 22.1496 23.0351 22.0634 23.2075 21.8911C23.3799 21.7187 23.5522 21.5464 23.6385 21.3739C23.8108 21.0292 23.8969 20.5982 23.9832 20.1674V19.5641C23.9832 19.5641 23.8969 19.4779 23.7246 19.3918Z" fill="white"/>
<path d="M23.9398 18.9404L23.948 18.9445C24.064 19.0024 24.1541 19.062 24.2185 19.1102C24.2507 19.1344 24.2766 19.1558 24.2962 19.173C24.3061 19.1816 24.3144 19.1892 24.3211 19.1955L24.3301 19.204L24.3337 19.2075L24.3353 19.2091L24.336 19.2099L24.3364 19.2102L24.3365 19.2104C24.3366 19.2105 24.3367 19.2106 23.9832 19.5641L24.3367 19.2106L24.4832 19.357V19.5641V20.1674V20.217L24.4734 20.2656L24.4665 20.3002C24.3853 20.7063 24.2881 21.1927 24.0857 21.5975C23.9621 21.8447 23.7385 22.0676 23.5858 22.2199C23.5773 22.2284 23.5691 22.2366 23.5611 22.2446C23.4495 22.3562 23.3392 22.4389 23.2559 22.5013L23.2489 22.5065C23.1606 22.5728 23.1017 22.6178 23.044 22.6755L22.8715 22.8479C22.7188 23.0006 22.5641 23.0737 22.4517 23.1236C22.4377 23.1299 22.4245 23.1357 22.4119 23.1413C22.3253 23.1794 22.2674 23.205 22.1922 23.2551L22.1662 23.2724L22.1383 23.2864C21.7554 23.4778 21.1592 23.6838 20.6219 23.6838H19.7602H19.679L19.602 23.6581C19.5237 23.632 19.4206 23.6157 19.2585 23.5926L19.2407 23.59C19.1072 23.571 18.9258 23.5452 18.7579 23.4916C16.3586 22.8671 14.2277 21.7104 12.3676 20.116L12.3152 20.0711L12.277 20.0137C12.2254 19.9364 12.1542 19.8617 12.0442 19.7617C12.0172 19.7371 11.9857 19.7092 11.9513 19.6788C11.8612 19.599 11.7511 19.5017 11.65 19.4005C11.65 19.4004 11.6499 19.4004 11.6499 19.4004L11.3109 19.0614C9.8863 17.7246 8.81783 16.2092 8.01809 14.5209L8.00518 14.4936L7.99564 14.465L7.91583 14.2257C7.6406 13.5775 7.45277 12.8282 7.45277 12.066C7.45277 10.9981 7.84004 9.94366 8.50611 9.08731L8.52517 9.06281L8.5471 9.04086C8.60491 8.98301 8.65005 8.92394 8.71629 8.83565L8.72151 8.82869C8.78397 8.7454 8.86663 8.63517 8.97806 8.52367L9.03553 8.46616L9.10826 8.42982C9.14626 8.41083 9.195 8.37624 9.29027 8.30479C9.29418 8.30185 9.29822 8.29882 9.30237 8.2957C9.36342 8.24984 9.44944 8.18521 9.54546 8.12869L9.58174 8.09246L9.72814 7.94627H9.93504C9.94894 7.94627 9.9744 7.94259 10.0723 7.9181C10.0765 7.91704 10.081 7.91592 10.0856 7.91474C10.1635 7.89512 10.3026 7.86003 10.4522 7.86003H11.4002H11.4814L11.5584 7.88571C11.6995 7.93277 11.8581 7.99258 12.0116 8.09486C12.1715 8.20152 12.3025 8.33815 12.4195 8.51354L12.4368 8.5395L12.4508 8.56742C12.5868 8.83943 12.9146 9.56142 13.2168 10.263C13.3686 10.6154 13.5163 10.9681 13.6321 11.2617C13.7337 11.5193 13.8281 11.7737 13.8659 11.9367C14.0019 12.3847 13.8446 12.8773 13.6261 13.2052L13.5986 13.2464L13.5636 13.2814C13.5285 13.3165 13.4942 13.3686 13.4234 13.4867C13.4205 13.4914 13.4176 13.4963 13.4147 13.5013C13.3557 13.5998 13.2634 13.754 13.1326 13.8847C13.0187 13.9987 12.8788 14.158 12.7623 14.2958C12.7052 14.3632 12.6558 14.423 12.6208 14.4658L12.5928 14.5003C12.592 14.5109 12.5913 14.5239 12.5908 14.5398C12.5907 14.5415 12.5906 14.5433 12.5906 14.5451C12.609 14.5889 12.623 14.6258 12.6321 14.6495C12.6344 14.6557 12.6364 14.6609 12.6381 14.6652L12.673 14.7002L12.7092 14.7725L12.7905 14.9351C13.1882 15.648 13.752 16.2963 14.3392 16.8836C14.402 16.9463 14.4863 17.0145 14.5997 17.1052L14.6097 17.1132C14.7102 17.1936 14.8365 17.2946 14.9426 17.4006M23.9398 18.9404L14.589 17.7542M23.9398 18.9404L23.9315 18.9366L22.9835 18.5056L22.9835 18.5056L22.977 18.5027L22.9769 18.5027L22.9768 18.5026L22.9761 18.5023L22.9732 18.5011L22.9618 18.4961L22.9171 18.4764L22.7503 18.4027C22.6085 18.3398 22.4103 18.2515 22.1855 18.1497C21.7341 17.9455 21.1813 17.6903 20.7594 17.4793L20.6538 17.4265H20.6107M23.9398 18.9404L20.5358 17.9265C20.4927 17.9265 20.4496 17.905 20.4065 17.8834C20.3634 17.8619 20.3203 17.8403 20.2772 17.8403C20.0186 17.8403 19.8463 17.9265 19.6739 18.0128M14.9426 17.4006L14.589 17.7542M14.9426 17.4006C14.9425 17.4006 14.9425 17.4006 14.9425 17.4006L14.589 17.7542M14.9426 17.4006C15.5718 18.0298 16.3714 18.5157 17.2848 18.9318M14.589 17.7542C15.2785 18.4436 16.1403 18.9608 17.0883 19.3918M17.2848 18.9318L17.274 18.9275L17.0883 19.3918M17.2848 18.9318L17.705 19.0999L17.8001 19.1379L17.8698 19.2075M17.2848 18.9318C17.2883 18.9334 17.2918 18.935 17.2952 18.9366L17.0883 19.3918M17.0883 19.3918L17.8698 19.2075M17.8698 19.2075C17.8696 19.2074 17.8695 19.2072 17.8693 19.2071C17.8676 19.2058 17.869 19.2067 17.8726 19.2103L17.8698 19.2075ZM17.8698 19.2075C17.8714 19.2088 17.8745 19.2111 17.879 19.2142C17.8892 19.2212 17.9021 19.2288 17.9153 19.2354C17.9161 19.2358 17.9168 19.2361 17.9175 19.2365M17.8698 19.2075L17.5193 19.5641C17.6055 19.6502 17.7779 19.7365 17.864 19.7365H17.9502C18.1226 19.7365 18.2949 19.6502 18.3812 19.4779C19.5878 18.0989 19.6739 18.0128 19.6739 18.0128M17.9175 19.2365H17.864C17.8697 19.2365 17.875 19.2366 17.8799 19.2368C17.8881 19.2372 17.8951 19.2378 17.9008 19.2384C17.9101 19.2394 17.9174 19.2406 17.9225 19.2416C17.9278 19.2426 17.9317 19.2436 17.9343 19.2443C17.9365 19.2448 17.9376 19.2452 17.9376 19.2452C17.938 19.2453 17.9359 19.2447 17.9315 19.2428C17.9277 19.2413 17.923 19.2391 17.9175 19.2365ZM17.9175 19.2365H17.9429M17.9429 19.2365L17.934 19.2541C17.935 19.2521 17.9372 19.2487 17.9407 19.245C17.9441 19.2415 17.9474 19.2391 17.9499 19.2377C17.95 19.2376 17.9501 19.2376 17.9502 19.2375C17.9541 19.2353 17.9541 19.2365 17.9502 19.2365H17.9429ZM17.9429 19.2365L17.9627 19.1968L18.0049 19.1486C18.6085 18.4588 18.9327 18.0914 19.1063 17.896C19.1931 17.7984 19.2429 17.743 19.2716 17.7115C19.286 17.6957 19.2956 17.6852 19.3023 17.678L19.3113 17.6685L19.3155 17.6641L19.3178 17.6618L19.319 17.6606L19.3197 17.6599L19.32 17.6596C19.3202 17.6594 19.3204 17.6592 19.6739 18.0128M19.6739 18.0128L19.3204 17.6592L19.3777 17.6019L19.4502 17.5656L19.4624 17.5595C19.6386 17.4712 19.9 17.3403 20.2772 17.3403C20.3807 17.3403 20.4649 17.3659 20.5175 17.3857C20.5543 17.3995 20.5885 17.4156 20.6107 17.4265M20.6107 17.4265H20.5358C20.5962 17.4265 20.6372 17.4414 20.6468 17.4449C20.6496 17.446 20.6517 17.4469 20.6518 17.4469C20.6519 17.4469 20.6467 17.4445 20.6302 17.4363L20.6265 17.4344C20.6223 17.4323 20.617 17.4296 20.6107 17.4265ZM12.1759 14.2206L12.4741 14.4592L12.4344 14.4791L12.0897 14.6516L12.1759 14.2206ZM12.1759 14.2206L12.4742 14.4592M0.320956 32.3725L8.48953 30.2672C10.8508 31.5382 13.4558 32.1298 16.0542 32.1298C25.0385 32.1298 32.326 24.749 32.326 15.7719C32.326 11.4179 30.637 7.32568 27.6118 4.30042L27.6099 4.29848C24.5826 1.1862 20.4042 -0.5 16.1403 -0.5C7.07347 -0.5 -0.218994 6.8777 -0.131478 15.8604C-0.131025 18.644 0.633316 21.3322 1.90251 23.7597L-0.286097 31.7563L-0.513606 32.5876L0.320956 32.3725ZM16.1403 28.458H16.0836C13.86 28.4483 11.646 27.8668 9.76406 26.7213L9.74632 26.7105L9.72774 26.7012L9.21067 26.4426L9.04316 26.3588L8.86184 26.4057L4.68896 27.4849L5.76462 23.3973L5.82184 23.1798L5.69713 22.9927L5.35704 22.4825C1.71333 16.5946 3.45923 8.80954 9.42011 5.16672C15.3971 1.51417 23.1017 3.26155 26.7454 9.22394C30.398 15.2009 28.6506 22.9055 22.6883 26.5492L22.6821 26.5531L22.6759 26.5571C20.7788 27.7942 18.4614 28.458 16.1403 28.458Z" stroke="black" stroke-opacity="0.24"/>
</g>
<defs>
<clipPath id="clip0">
<rect width="31.6293" height="32" fill="white" transform="translate(0.196167)"/>
</clipPath>
</defs>
</svg>
