<svg width="40" height="32" viewBox="0 0 40 32" fill="none" xmlns="http://www.w3.org/2000/svg">
<g clip-path="url(#clip0)">
<path d="M39.1962 3.89677C37.7539 4.53631 36.2041 4.96854 34.5775 5.16299C36.2379 4.16778 37.5129 2.59181 38.1132 0.714072C36.5347 1.65078 34.8077 2.31075 33.0069 2.66546C31.5399 1.10267 29.4501 0.125977 27.1371 0.125977C22.696 0.125977 19.0953 3.72651 19.0953 8.16732C19.0953 8.79767 19.1665 9.41133 19.3035 10C12.6202 9.66458 6.69489 6.4632 2.72857 1.59798C2.03652 2.78565 1.63996 4.16716 1.63996 5.64069C1.63996 8.43067 3.05975 10.8919 5.21738 12.3341C3.94036 12.2941 2.69144 11.9491 1.57489 11.3281C1.57443 11.3618 1.57443 11.3955 1.57443 11.4293C1.57443 15.3255 4.34633 18.5757 8.02496 19.3145C6.84078 19.6365 5.59867 19.6837 4.39349 19.4523C5.41673 22.6471 8.3866 24.9719 11.9054 25.037C9.15323 27.1937 5.68574 28.4794 1.91832 28.4794C1.26913 28.4794 0.629129 28.4412 0 28.367C3.55874 30.6486 7.78565 31.9799 12.3269 31.9799C27.1184 31.9799 35.2067 19.7264 35.2067 9.09991C35.2067 8.75112 35.1991 8.40433 35.1835 8.05953C36.7578 6.92144 38.1166 5.5118 39.1962 3.89677Z" fill="#55ACEE"/>
</g>
<defs>
<clipPath id="clip0">
<rect width="39.1962" height="32" fill="white"/>
</clipPath>
</defs>
</svg>
