<svg width="33" height="32" viewBox="0 0 33 32" fill="none" xmlns="http://www.w3.org/2000/svg">
<g clip-path="url(#clip0)">
<path d="M16.1962 0C7.35954 0 0.196167 7.16337 0.196167 16C0.196167 24.8366 7.35954 32 16.1962 32C25.0328 32 32.1962 24.8366 32.1962 16C32.1962 7.16337 25.0328 0 16.1962 0Z" fill="#40B3E0"/>
<path d="M23.9816 9.20386L21.1237 23.6125C21.1237 23.6125 20.7241 24.6117 19.6249 24.1321L13.0302 19.0761L10.6322 17.9171L6.59544 16.5581C6.59544 16.5581 5.97594 16.3384 5.91594 15.8587C5.85594 15.3791 6.61544 15.1194 6.61544 15.1194L22.6624 8.82437C22.6624 8.82437 23.9814 8.24487 23.9814 9.20412" fill="white"/>
<path d="M12.5235 23.4505C12.5235 23.4505 12.331 23.4325 12.091 22.673C11.8513 21.9136 10.6322 17.9168 10.6322 17.9168L20.3245 11.7618C20.3245 11.7618 20.8841 11.4221 20.8641 11.7618C20.8641 11.7618 20.964 11.8218 20.6641 12.1016C20.3645 12.3815 13.0503 18.9561 13.0503 18.9561" fill="#D2E5F1"/>
<path d="M15.5588 21.0142L12.9504 23.3925C12.9504 23.3925 12.7464 23.5472 12.5234 23.4502L13.0229 19.0327" fill="#B5CFE4"/>
</g>
<defs>
<clipPath id="clip0">
<rect width="32" height="32" fill="white" transform="translate(0.196167)"/>
</clipPath>
</defs>
</svg>
